<svg xmlns="http://www.w3.org/2000/svg" xmlns:xlink="http://www.w3.org/1999/xlink" width="512" height="512" viewBox="0 0 512 512">
  <defs>
    <rect id="rect-1" width="512" height="512" x="0" y="0"/>
    <mask id="mask-2" maskContentUnits="userSpaceOnUse" maskUnits="userSpaceOnUse">
      <rect width="512" height="512" x="0" y="0" fill="black"/>
      <use fill="white" xlink:href="#rect-1"/>
    </mask>
  </defs>
  <g>
    <use fill="none" xlink:href="#rect-1"/>
    <g mask="url(#mask-2)">
      <path fill="none" stroke="rgb(0,0,0)" stroke-dasharray="0 0 0 0" stroke-linecap="round" stroke-linejoin="round" stroke-width="19" d="M350.54 148.68l-26.62-42.06C318.31 100.08 310.62 96 302 96h-92c-8.62 0-16.31 4.08-21.92 10.62l-26.62 42.06C155.85 155.23 148.62 160 140 160H80c-17.673112 0-32 14.326888-32 32v192c0 17.673112 14.326888 32 32 32h352c17.673112 0 32-14.326888 32-32V192c0-17.673112-14.326888-32-32-32h-59c-8.65 0-16.85-4.77-22.46-11.32h0z"/>
      <ellipse cx="256" cy="272" fill="none" stroke="rgb(0,160,164)" stroke-dasharray="0 0 0 0" stroke-linecap="butt" stroke-linejoin="miter" stroke-width="21" rx="80" ry="80"/>
      <path fill="none" stroke="rgb(0,0,0)" stroke-dasharray="0 0 0 0" stroke-linecap="round" stroke-linejoin="round" stroke-width="19" d="M124 158v-22h-24v22"/>
    </g>
  </g>
</svg>
