<svg xmlns="http://www.w3.org/2000/svg" width="499.636" height="480" viewBox="0 0 499.636 480">
  <g>
    <path fill="rgb(0,0,0)" fill-rule="evenodd" d="M111 447.40000916c3.05979156 0 5.95698547-1.39569092 7.8687439-3.78753663C123.1110611 438.36027527 222 314.16186523 222 255.5c0-61.35946655-49.695755-111.09999084-111-111.09999084-61.30424118 0-111 49.74052429-111 111.09999084 0 58.66186523 98.8889389 182.81095886 103.1312561 188.11247253 1.91175843 2.3918457 4.80895234 3.78753663 7.8687439 3.78753663zm.00000763-282.80000306c50.13426971.054245 90.76398468 40.72055054 90.8181839 90.8999939 0 39.18682861-59.64871216 124.87408447-90.8181839 165.4269867C79.83052063 380.38885497 20.181818 294.70654296 20.181818 255.5c.05420112-50.17944336 40.68390465-90.8457489 90.81818962-90.8999939z"/>
    <path fill="rgb(0,160,164)" fill-rule="evenodd" d="M151.3636303 245.3999939C151.3636303 223.08926392 133.29066276 205 110.9999981 205c-22.29065705 0-40.3636322 18.08926392-40.3636322 40.3999939 0 22.3107605 18.07297515 40.3999939 40.3636322 40.3999939 22.29066467 0 40.3636322-18.0892334 40.3636322-40.3999939zm-60.5454483 0c0-11.155365 9.03649139-20.19999695 20.1818161-20.19999695 11.14533233 0 20.18182372 9.04463196 20.18182372 20.19999695 0 11.15536499-9.0364914 20.2000122-20.18182373 20.2000122-11.1453247 0-20.1818161-9.04464721-20.1818161-20.2000122z"/>
    <path fill="rgb(0,0,0)" fill-rule="evenodd" d="M435.6363659 168c2.33203124 0 4.54296874-1.015625 6.0625-2.78515625 5.9375-6.88671875 57.9375-68.26953125 57.9375-101.21484375 0-35.34765625-28.65234376-64-64-64-35.34765626 0-64 28.65234375-64 64 0 32.9453125 52 94.328125 57.9375 101.21484375C431.09339713 166.984375 433.30433463 168 435.6363659 168zm0-152c26.5.02734375 47.97265624 21.5 48 48 0 20.2734375-30.54296876 62.046875-48 83.51171875-17.46484376-21.46484375-48-63.19921875-48-83.51171875.02734374-26.5 21.5-47.97265625 48-48z"/>
    <path fill="rgb(0,160,164)" fill-rule="evenodd" d="M459.6363659 56c0-13.25390625-10.74609376-24-24-24-13.25390626 0-24 10.74609375-24 24s10.74609374 24 24 24c13.25390624 0 24-10.74609375 24-24zm-32 0c0-4.41796875 3.58203124-8 8-8 4.41796874 0 8 3.58203125 8 8s-3.58203126 8-8 8c-4.41796876 0-8-3.58203125-8-8z"/>
    <path fill="rgb(0,0,0)" fill-rule="evenodd" d="M427.6363659 200h8c4.41797 0 8-3.58203 8-8s-3.58203-8-8-8h-8c-4.41797 0-8 3.58203-8 8s3.58203 8 8 8z"/>
    <path fill="rgb(0,0,0)" fill-rule="evenodd" d="M323.6363659 248h16.17578c4.41797 0 8-3.58203 8-8s-3.58203-8-8-8h-16.30469c-2.11328.00391-4.14062.85156-5.62891 2.35156-1.48828 1.5-2.32031 3.53516-2.30469 5.64844.02734 4.42969 3.63281 8.00391 8.0625 8h.00001z"/>
    <path fill="rgb(0,0,0)" fill-rule="evenodd" d="M413.3238659 240c0 4.41797 3.58203 8 8 8h16.29688c4.41797 0 8-3.58203 8-8s-3.58203-8-8-8h-16.29687c-4.41797 0-8 3.58203-8 8h-.00001z"/>
    <path fill="rgb(0,0,0)" fill-rule="evenodd" d="M378.7340259 200h16.30078c4.41797 0 8-3.58203 8-8s-3.58203-8-8-8h-16.30078c-4.42187 0-8 3.58203-8 8s3.57813 8 8 8z"/>
    <path fill="rgb(0,0,0)" fill-rule="evenodd" d="M165.3551159 464h-16.3046875c-4.41796876 0-8 3.58203125-8 8s3.58203124 8 8 8h16.3046875c4.41796874 0 8-3.58203125 8-8s-3.58203126-8-8-8z"/>
    <path fill="rgb(0,0,0)" fill-rule="evenodd" d="M301.79652214 228.78515625c-.54296875.1171875-1.09765625.17578125-1.65625.17578125-3.78515625-.0078125-7.046875-2.671875-7.81640625-6.375-1.5078125-7.15234375-.5234375-14.609375 2.79296875-21.12109375 2.00390625-3.94140625 6.8203125-5.5078125 10.7578125-3.50390625 3.94140625 2.00390625 5.5078125 6.8203125 3.50390625 10.7578125-1.1484375 2.2578125-1.74609375 4.75-1.7421875 7.28125.00390625 1.1171875.1171875 2.2265625.34375 3.3203125.90234375 4.3203125-1.86328125 8.5546875-6.18359375 9.46484375z"/>
    <path fill="rgb(0,0,0)" fill-rule="evenodd" d="M372.43714714 248h16.3046875c4.41796875 0 8-3.58203125 8-8s-3.58203125-8-8-8h-16.3046875c-4.41796875 0-8 3.58203125-8 8s3.58203125 8 8 8z"/>
    <path fill="rgb(0,0,0)" fill-rule="evenodd" d="M329.8277759 200h16.30469c4.41797 0 8-3.58203 8-8s-3.58203-8-8-8h-16.30469c-4.41797 0-8 3.58203-8 8s3.58203 8 8 8z"/>
    <path fill="rgb(0,0,0)" fill-rule="evenodd" d="M252.7144909 339.2578125c-.65234376 0-1.30859376-.078125-1.94140626-.2421875-2.0625-.51171875-3.8359375-1.82421875-4.92578125-3.6484375-1.09375-1.8203125-1.41796875-4.00390625-.8984375-6.0625 1.62109375-6.47265625 4.69140625-12.48828125 8.9765625-17.6015625 1.8125-2.265625 4.71484375-3.37109375 7.57421875-2.890625 2.86328125.484375 5.2421875 2.48046875 6.2109375 5.21875.96875 2.734375.3828125 5.78125-1.5390625 7.9609375-2.71875 3.2578125-4.66796875 7.0859375-5.703125 11.19921875C259.5816784 336.75 256.3863659 339.25 252.7144909 339.2578125z"/>
    <path fill="rgb(0,0,0)" fill-rule="evenodd" d="M403.6363659 464c1.734375.00390625 3.46484374-.109375 5.18359374-.3359375h-.03125c4.3828125-.56640625 8.39453125 2.52734375 8.9609375 6.91015625.5625 4.3828125-2.53125 8.39453125-6.9140625 8.9609375C408.4488659 479.84375 406.0426159 480 403.6363659 480h-10.0703125c-4.421875 0-8-3.58203125-8-8s3.578125-8 8-8h10.0703125z"/>
    <path fill="rgb(0,0,0)" fill-rule="evenodd" d="M403.6363659 368c5.53125-.01171875 11.03515624.796875 16.328125 2.3984375v.02734375c3.796875 1.1484375 6.17578124 4.90625 5.59375 8.83203125-.5859375 3.921875-3.95703126 6.82421875-7.921875 6.8203125-.7890625 0-1.57421876-.1171875-2.328125-.3515625C411.52308463 384.58203125 407.5894909 384 403.6363659 384h-2.09765626c-4.41796875 0-8-3.58203125-8-8s3.58203125-8 8-8h2.09765625z"/>
    <path fill="rgb(0,0,0)" fill-rule="evenodd" d="M402.9019909 312c4.41796874 0 8-3.58203125 8-8s-3.58203126-8-8-8h-16.296875c-4.41796876 0-8 3.58203125-8 8s3.58203124 8 8 8h16.296875z"/>
    <path fill="rgb(0,0,0)" fill-rule="evenodd" d="M440.13245964 440.390625c1.81640625-4.0234375 6.55078125-5.8125 10.57421875-4 4.02734375 1.8125 5.82421875 6.54296875 4.01953125 10.5703125-2.609375 5.79296875-6.1953125 11.1015625-10.59375 15.6875-1.95703125 2.140625-4.921875 3.0546875-7.74609375 2.38671875-2.8203125-.6640625-5.0625-2.80859375-5.85546875-5.6015625-.79296875-2.7890625-.01171875-5.7890625 2.04296875-7.83984375 3.13671875-3.27734375 5.6953125-7.06640625 7.55859375-11.203125z"/>
    <path fill="rgb(0,0,0)" fill-rule="evenodd" d="M486.5113659 274.05078125c1.8671875-1.015625 4.05859374-1.24609375 6.09375-.64453125 2.03515624.6015625 3.75 1.98828125 4.765625 3.8515625 1.01171874 1.8671875 1.24609374 4.05859375.640625 6.09375-1.9453125 6.54296875-5.5234375 12.48046875-10.3984375 17.2578125-3.16015626 3.08984375-8.2265625 3.0390625-11.3203125-.12109375s-3.0390625-8.2265625.12109374-11.3203125c2.921875-2.8671875 5.0703125-6.4296875 6.24609375-10.3515625.6015625-2.03515625 1.98828125-3.75 3.8515625-4.765625z"/>
    <path fill="rgb(0,0,0)" fill-rule="evenodd" d="M490.78870964 253.90234375c-1.2890625 2.8828125-4.15234375 4.7421875-7.3125 4.73828125-2.2734375 0-4.44140625-.96484375-5.9609375-2.65625-2.734375-3.0546875-6.203125-5.35546875-10.078125-6.6875-4.1796875-1.4375-6.40625-5.98828125-4.96875-10.16796875s5.98828125-6.40625 10.16796875-4.96875c6.453125 2.2265625 12.234375 6.05859375 16.80078125 11.13671875 2.109375 2.3515625 2.63671875 5.72265625 1.3515625 8.60546875z"/>
    <path fill="rgb(0,0,0)" fill-rule="evenodd" d="M368.9410559 368h-16.29688c-4.41797 0-8 3.58203-8 8s3.58203 8 8 8h16.29688c4.41797 0 8-3.58203 8-8s-3.58203-8-8-8z"/>
    <path fill="rgb(0,0,0)" fill-rule="evenodd" d="M451.80433464 296h-16.3046875c-4.41796875 0-8 3.58203125-8 8s3.58203125 8 8 8h16.3046875c4.41796875 0 8-3.58203125 8-8s-3.58203125-8-8-8z"/>
    <path fill="rgb(0,0,0)" fill-rule="evenodd" d="M214.2535534 464h-16.296875c-4.41796876 0-8 3.58203125-8 8s3.58203124 8 8 8h16.296875c4.41796874 0 8-3.58203125 8-8s-3.58203126-8-8-8z"/>
    <path fill="rgb(0,0,0)" fill-rule="evenodd" d="M449.9801159 392.55859c-2.49609-3.65234-7.48047-4.58984-11.13672-2.09375-3.65234 2.49609-4.58984 7.48047-2.09375 11.13672 2.55469 3.74219 4.44922 7.89453 5.59766 12.27734.625 2.86328 2.76562 5.15625 5.58203 5.97656 2.8125.82031 5.84766.03516 7.91406-2.04687 2.0625-2.07812 2.82422-5.12109 1.98438-7.92969-1.60156-6.17969-4.25391-12.03906-7.84766-17.32031z"/>
    <path fill="rgb(0,0,0)" fill-rule="evenodd" d="M265.51527214 357.16796875c2.61328125 3.34765625 5.9375 6.06640625 9.73828125 7.9609375 3.85546875 2.0078125 5.40234375 6.734375 3.4765625 10.6328125-1.92578125 3.90234375-6.6171875 5.55078125-10.55859375 3.7109375-5.97265625-2.9609375-11.19921875-7.23046875-15.296875-12.48828125-2.70703125-3.4921875-2.078125-8.51953125 1.4140625-11.2265625 3.48828125-2.7109375 8.515625-2.08203125 11.2265625 1.41015625z"/>
    <path fill="rgb(0,0,0)" fill-rule="evenodd" d="M263.15589714 464h-16.3203125c-4.41796875 0-8 3.58203125-8 8s3.58203125 8 8 8h16.3203125c4.41796875 0 8-3.58203125 8-8s-3.58203125-8-8-8z"/>
    <path fill="rgb(0,0,0)" fill-rule="evenodd" d="M360.9644909 464h-16.296875c-4.41796876 0-8 3.58203125-8 8s3.58203124 8 8 8h16.296875c4.41796874 0 8-3.58203125 8-8s-3.58203126-8-8-8z"/>
    <path fill="rgb(0,0,0)" fill-rule="evenodd" d="M305.10120964 312c4.41796875 0 8-3.58203125 8-8s-3.58203125-8-8-8h-16.296875c-4.41796875 0-8 3.58203125-8 8s3.58203125 8 8 8h16.296875z"/>
    <path fill="rgb(0,0,0)" fill-rule="evenodd" d="M354.0348059 312c4.41797 0 8-3.58203 8-8s-3.58203-8-8-8h-16.33594c-4.41797 0-8 3.58203-8 8s3.58203 8 8 8h16.33594z"/>
    <path fill="rgb(0,0,0)" fill-rule="evenodd" d="M320.0426159 368h-16.30078126c-4.41796875 0-8 3.58203125-8 8s3.58203125 8 8 8h16.30078125c4.421875 0 8-3.58203125 8-8s-3.578125-8-8-8z"/>
    <path fill="rgb(0,0,0)" fill-rule="evenodd" d="M312.06995964 464h-16.3046875c-4.41796875 0-8 3.58203125-8 8s3.58203125 8 8 8h16.3046875c4.41796875 0 8-3.58203125 8-8s-3.58203125-8-8-8z"/>
    <path fill="rgb(0,0,0)" fill-rule="evenodd" d="M115.6363659 464h-8c-4.41796876 0-8 3.58203125-8 8s3.58203124 8 8 8h8c4.41796874 0 8-3.58203125 8-8s-3.58203126-8-8-8z"/>
  </g>
</svg>
