<svg xmlns="http://www.w3.org/2000/svg" xmlns:xlink="http://www.w3.org/1999/xlink" width="66" height="66" viewBox="0 0 66 66">
  <defs>
    <rect id="rect-1" width="66" height="66" x="0" y="0"/>
    <mask id="mask-2" maskContentUnits="userSpaceOnUse" maskUnits="userSpaceOnUse">
      <rect width="66" height="66" x="0" y="0" fill="black"/>
      <use fill="white" xlink:href="#rect-1"/>
    </mask>
  </defs>
  <g>
    <use fill="none" xlink:href="#rect-1"/>
    <g mask="url(#mask-2)">
      <path fill="rgb(0,0,0)" fill-rule="evenodd" d="M6.81357119 21.27436267C6.62700689 21.02657644 5.21488089 20.28465267 5 20.5c-3.10025968 3.10631693-4.42731173 5.89025493-4.5 6-.17260924.26091812.54335554 1.1788159.76948177 1.37806104C1.36283166 27.96029167 1.4726431 28 1.58170938 28c.1550638 0 .308434-.08051098.40984532-.23371635.01713899-.0259511 1.74932822-2.62598684 4.77080276-5.65343428.2147454-.21526917.23764254-.59070047.05121373-.8384867z"/>
      <path fill="rgb(0,0,0)" fill-rule="evenodd" d="M62.0439519 35.6534422c-6.34018909-.72976225-11.96617314-2.83942548-16.72193517-6.27044296-3.79099258-2.7349421-7.04557336-6.3151186-9.6736053-10.64109013-4.49375822-7.39724199-5.61785244-14.51796335-5.6284649-14.58713854-.05733487-.38154442-.23581722-.71336917-.49148112-.91260813-.25538825-.19923897-.563701-.2471572-.84775668-.13168507C21.79873269 5.90504705 14.98566876 10.48664254 8.4310252 16.7282625c-.46777535.44549544-.57086785 1.30225902-.2300286 1.91366684.34083927.61140782.99633119.74633547 1.46410654.30065989C14.78416977 14.06826018 20.0575995 10.2434485 25.3894667 7.52363847c-1.24841165 1.89421132-2.78983756 4.37623163-4.38956311 7.30122537-6.24095566 11.410484-8.29053942 20.32976037-8.91102399 25.80270703-.08476189.74831705.31051793 1.44493286.88290186 1.55572125.05209755.01008805.10378163.01495193.1549144.01495193.51091433 0 .9582917-.48891008 1.03547326-1.16931295 1.06124638-9.35972778 5.21926483-18.52760249 8.52056801-24.57016362 2.27740717-4.16852592 4.47156852-7.46353488 5.78999486-9.33955169.70965683 2.87941738 2.28360926 7.94001505 5.46665928 13.21462346 2.79796919 4.63689961 6.26548836 8.47306034 10.30594276 11.4018371 1.4828764 1.0748471 3.04401726 2.02725572 4.67919513 2.85561212 3.90812923 1.97979924 8.2391769 3.2509802 12.93542742 3.79151138.0312861.00360287.06229654.00522417.09316916.00522417.53723875 0 .99481511-.53700846 1.04277794-1.2498372.0507193-.75372137-.37543314-1.41845173-.95195179-1.48474462z"/>
      <path fill="rgb(0,160,164)" fill-rule="evenodd" d="M64.13956591 51.91386832c-.06861768-1.09188417-.43025388-1.81637086-.80787956-1.61787049-1.69223448.89047634-3.57871823 1.32342387-5.7671746 1.32342387-4.83539946 0-7.18630887-2.041567-9.67509323-4.20260427-.6292543-.54660287-1.28007155-1.11144346-1.96780164-1.63478663-.37132125-.28228814-.7510484.35920372-.84862987 1.43258586-.09767284 1.07364645.12416968 2.1724028.49521683 2.45495525.66461388.50563409 1.30373597 1.06069503 1.92175195 1.59751825 2.47544457 2.14967174 5.03513083 4.37255865 10.07455597 4.37255865 2.27288078 0 4.24059105-.45409271 6.01587943-1.3884453.37744294-.19876468.6277924-1.24518671.55917472-2.3373352z"/>
      <path fill="rgb(0,160,164)" fill-rule="evenodd" d="M43.36884628 45.18165875c-3.00105472-.94295593-6.18565066-1.38200814-10.02161762-1.38200814-8.18368305 0-12.3404391 2.08965992-16.36024404 4.11049275-4.04176459 2.03176566-7.85933292 3.95072447-15.71169216 3.95072447-.62303118 0-1.12825176.8458029-1.12825176 1.88939049 0 1.04333912.5050722 1.88939049 1.12825176 1.88939049 8.18368305 0 12.3404391-2.08965992 16.36024404-4.11049276 4.04176459-2.03176565 7.85933291-3.95072446 15.71154378-3.95072446 3.69278404 0 6.74502851.41842893 9.6054227 1.31715663.61309.19231828 1.20214305-.48328045 1.31683777-1.5087295.11528822-1.02544904-.28814636-2.01263321-.90049447-2.20519997z"/>
      <path fill="rgb(0,0,0)" fill-rule="evenodd" d="M29.90282619 36.69949222c-.50269818.23902683-.81043019.91401224-.69959325 1.56923127.08457437.5571192.46115288 1.00351004.91221618 1.0984985.48044177.1012112.9734955-.19821291 1.19591126-.73428457.46174638-1.1125912-.45863049-2.38514368-1.4085342-1.9334452z"/>
      <path fill="rgb(0,0,0)" fill-rule="evenodd" d="M32.5682542 34.82241781c-.41767868.4542608-.4945375 1.24253687-.18947626 1.81338273.562197 1.01412532 1.87666074.6815742 2.0493705-.53515655.18042533-1.2718204-1.07735876-2.12946185-1.85989424-1.27822618z"/>
      <path fill="rgb(0,160,164)" fill-rule="evenodd" d="M70.19717158 53.35450107c-.4225751-.34371546-.99575191-.3025355-1.37529794.11640204-.34705167.3830652-.46990707 1.00387608-.30268722 1.5404968.17152276.55016436.62080555.9143783 1.0988733.88948729.44438638-.0232438.84455668-.37830663 1.00420935-.88948729.18725062-.59903125.01142496-1.30220206-.42509749-1.65689884z"/>
      <path fill="rgb(0,160,164)" fill-rule="evenodd" d="M68.4672548 56.41627736c-.38889373-.31626214-.903462-.30729406-1.2837499.02598914-.408331.35780816-.5721382 1.03206148-.40061544 1.60949613.152679.514109.54483699.8746625.98818474.90925367.5013628.0389837.9734955-.35103634 1.13685757-.93615792.16410395-.5878669-.01854701-1.26578067-.44067698-1.60858102z"/>
      <path fill="rgb(0,0,0)" fill-rule="evenodd" d="M6.67900115 43.0302258c-.3617409-1.1142384-1.68436533-1.1151535-2.07222042-.03093073-.19956584.55785129-.0756718 1.23301972.30253884 1.62651718.34883218.36293278.85716865.42991886 1.2601581.16435383.50596246-.3332832.72822983-1.10691751.50952348-1.75994028z"/>
      <path fill="rgb(0,0,0)" fill-rule="evenodd" d="M6.74369312 38.83847121c-.18027694-1.18799629-1.47901282-1.49602244-2.031417-.52344313-.29052037.51118065-.26040002 1.2253328.06810463 1.69917694.2872561.41417896.7613177.58621971 1.1844863.42735655.54454023-.20443566.8958948-.91090087.77882607-1.60309036z"/>
      <path fill="rgb(0,0,0)" fill-rule="evenodd" d="M29.7532631 31.96251487c-.49216349.34371545-.69632898 1.09630223-.48697032 1.74145504.18843763.55107947.64973888.90504417 1.13596731.85434705.43385168-.04520645.81502985-.40338065.96518645-.90742345.35506397-1.1922058-.72259154-2.3106537-1.61418345-1.68837864z"/>
    </g>
  </g>
</svg>
