<svg xmlns="http://www.w3.org/2000/svg" xmlns:xlink="http://www.w3.org/1999/xlink" width="66" height="66" viewBox="0 0 66 66">
  <defs>
    <rect id="rect-1" width="66" height="66" x="0" y="0"/>
    <mask id="mask-2" maskContentUnits="userSpaceOnUse" maskUnits="userSpaceOnUse">
      <rect width="66" height="66" x="0" y="0" fill="black"/>
      <use fill="white" xlink:href="#rect-1"/>
    </mask>
    <path id="path-4" fill-rule="evenodd" d="M0 0v66h66V0H0z"/>
    <mask id="mask-5" maskContentUnits="userSpaceOnUse" maskUnits="userSpaceOnUse">
      <rect width="66" height="66" x="0" y="0" fill="black"/>
      <use fill="white" xlink:href="#path-4"/>
    </mask>
  </defs>
  <g>
    <use fill="none" xlink:href="#rect-1"/>
    <g mask="url(#mask-2)">
      <rect width="66" height="66" x="0" y="0" fill="none" rx="0" ry="0"/>
      <g>
        <use fill="none" xlink:href="#path-4"/>
        <g mask="url(#mask-5)">
          <path fill="rgb(0,0,0)" fill-rule="evenodd" d="M11.78994073 24.24454108C11.47919675 23.81144594 11.35790847 23.12360345 11 23.5c-5.16383384 5.42940085-8.32329794 10.62251477-8.4443685 10.81433357-.28750024.45604782-.37663886 1.12428224 0 1.47253444C2.71111634 35.93059548 2.89401974 36 3.07568199 36c.25827633 0 .51373178-.14072176.68264382-.40850299.02509482-.0398737 2.257688-3.5565363 6.21603354-8.00112734.54452049-.6114097 1.12169821-1.24037904 1.73027912-1.88027292.3576828-.37625993.39582058-1.03246053.08530227-1.46555567z"/>
          <path fill="rgb(0,0,0)" fill-rule="evenodd" d="M62.15550539 36.3220578c-5.63480304-.65520989-10.63486085-2.54935036-14.86151433-5.6298558-3.36922073-2.45554098-6.26170885-5.6699674-8.59735565-9.55399857-3.99379925-6.64154128-4.9928309-13.03481122-5.00226265-13.09691949-.050956-.34256592-.20958107-.64049152-.43680075-.81937627-.2269747-.17888476-.5009857-.22190767-.7534384-.11823215-6.11631276 2.50907702-12.17138032 6.62261766-17.99677841 12.22659502-.4157324.39998372-.5073552 1.16922051-.20443647 1.71816703.30291875.54894653.88548306.67009 1.30121545.26994454 4.54953815-4.3763686 9.23626554-7.81043831 13.97492886-10.25239311-1.10951798 1.70069908-2.47945053 3.92915671-3.90119651 6.5553337-5.54660995 10.24479131-7.36816458 18.25287625-7.91961632 23.16670782-.0753316.67186913.27597085 1.29731882.78467345 1.39678909.04630137.00905745.09223527.01342444.1376792.01342444.45407188 0 .8516757-.43896313.92027032-1.04985618.94317602-8.40353993 4.63858867-16.63482646 7.57260104-22.0600808 2.02403124-3.74267017 3.9740783-6.7010617 5.14582138-8.38542502.63070303 2.5852567 2.02954332 7.12886476 4.85845893 11.86462027 2.48667745 4.1631949 5.56841323 7.60745425 9.15934157 10.23702778 1.31789704.96504094 2.70535113 1.8201517 4.15860514 2.56388338 3.47332518 1.77754336 7.32251646 2.91886073 11.49627947 3.40417136.02780532.0032348.05536565.00469047.0828035.00469047.47746755 0 .88413565-.48214779.92676231-1.1221541.04507646-.67672134-.33366383-1.27354299-.84604114-1.3330634z"/>
          <path fill="rgb(0,160,164)" fill-rule="evenodd" d="M61.16425174 52.46511894c-.06861768-.93033364-.43025388-1.54762836-.80787956-1.37849726-1.69223448.75872525-3.57871823 1.1276157-5.7671746 1.1276157-4.83539946 0-7.18630887-1.73950543-9.67509323-3.58080483-.6292543-.46572984-1.28007155-.94699902-1.96780164-1.39291056-.37132125-.24052199-.7510484.30605747-.84862987 1.22062655-.09767284.9147943.12416968 1.85098334.49521683 2.09173053.66461388.43082262 1.30373597.9037591 1.92175195 1.36115625 2.47544457 1.83161546 5.03513083 3.72561349 10.07455597 3.72561349 2.27288078 0 4.24059105-.38690709 6.01587943-1.18301685.37744294-.1693563.6277924-1.06095418.55917472-1.99151303z"/>
          <path fill="rgb(0,160,164)" fill-rule="evenodd" d="M38.10785906 45.18165875c-2.63576432-.94295593-5.4327291-1.38200814-8.80177959-1.38200814-7.18755965 0-10.83835256 2.08965992-14.36886414 4.11049275-3.54979829 2.03176566-6.90268964 3.95072447-13.79925443 3.95072447-.5471954 0-.9909202.8458029-.9909202 1.88939049 0 1.04333912.44359447 1.88939049.9909202 1.88939049 7.18755965 0 10.83835256-2.08965992 14.36886414-4.11049276 3.54979829-2.03176565 6.90268963-3.95072446 13.79912411-3.95072446 3.24329589 0 5.92401911.41842893 8.4362442 1.31715663.53846427.19231828 1.05581739-.48328045 1.15655139-1.5087295.10125526-1.02544904-.253073-2.01263321-.79088568-2.20519997z"/>
          <path fill="rgb(0,0,0)" fill-rule="evenodd" d="M33.84589207 36.35925241c-.50269818.23902683-.81043019.91401224-.69959325 1.56923127.08457437.5571192.46115288 1.00351004.91221618 1.0984985.48044177.1012112.9734955-.19821291 1.19591126-.73428457.46174638-1.1125912-.45863049-2.38514368-1.4085342-1.9334452h1e-8z"/>
          <path fill="rgb(0,0,0)" fill-rule="evenodd" d="M36.51132008 34.482178c-.41767868.4542608-.4945375 1.24253687-.18947626 1.81338273.562197 1.01412532 1.87666074.6815742 2.0493705-.53515655.18042533-1.2718204-1.07735876-2.12946185-1.85989424-1.27822618z"/>
          <path fill="rgb(0,160,164)" fill-rule="evenodd" d="M70.19717158 53.35450107c-.4225751-.34371546-.99575191-.3025355-1.37529794.11640204-.34705167.3830652-.46990707 1.00387608-.30268722 1.5404968.17152276.55016436.62080555.9143783 1.0988733.88948729.44438638-.0232438.84455668-.37830663 1.00420935-.88948729.18725062-.59903125.01142496-1.30220206-.42509749-1.65689884z"/>
          <path fill="rgb(0,160,164)" fill-rule="evenodd" d="M68.4672548 56.41627736c-.38889373-.31626214-.903462-.30729406-1.2837499.02598914-.408331.35780816-.5721382 1.03206148-.40061544 1.60949613.152679.514109.54483699.8746625.98818474.90925367.5013628.0389837.9734955-.35103634 1.13685757-.93615792.16410395-.5878669-.01854701-1.26578067-.44067698-1.60858102h1e-8z"/>
          <path fill="rgb(0,0,0)" fill-rule="evenodd" d="M9.2572454 41.68777703c-.3617409-1.1142384-1.68436533-1.1151535-2.07222042-.03093073-.19956584.55785129-.0756718 1.23301972.30253884 1.62651718.34883218.36293278.85716865.42991886 1.2601581.16435383.50596246-.3332832.72822983-1.10691751.50952348-1.75994028z"/>
          <path fill="rgb(0,0,0)" fill-rule="evenodd" d="M9.32193737 37.49602244C9.14166043 36.30802615 7.84292455 36 7.29052037 36.97257931 7 37.48375996 7.03012035 38.19791211 7.358625 38.67175625c.2872561.41417896.7613177.58621971 1.1844863.42735655.54454023-.20443566.8958948-.91090087.77882607-1.60309036z"/>
          <path fill="rgb(0,0,0)" fill-rule="evenodd" d="M33.69632898 31.62227506c-.49216349.34371545-.69632898 1.09630223-.48697032 1.74145504.18843763.55107947.64973888.90504417 1.13596731.85434705.43385168-.04520645.81502985-.40338065.96518645-.90742345.35506397-1.1922058-.72259154-2.3106537-1.61418345-1.68837864h1e-8z"/>
        </g>
      </g>
    </g>
  </g>
</svg>
