<svg xmlns="http://www.w3.org/2000/svg" xmlns:xlink="http://www.w3.org/1999/xlink" width="512" height="559" viewBox="0 0 512 559">
  <defs>
    <rect id="rect-1" width="512" height="512" x="0" y="0"/>
    <mask id="mask-2" maskContentUnits="userSpaceOnUse" maskUnits="userSpaceOnUse">
      <rect width="512" height="559" x="0" y="0" fill="black"/>
      <use fill="white" xlink:href="#rect-1"/>
    </mask>
    <path id="path-9" fill-rule="evenodd" d="M321 266.62921348L419.5 249.5l57.5 60.61235955L359.69767442 342 321 266.62921348z"/>
    <mask id="mask-10" x="0" y="0" maskContentUnits="userSpaceOnUse" maskUnits="userSpaceOnUse">
      <rect width="512" height="559" x="0" y="0" fill="black"/>
      <use fill="white" xlink:href="#path-9"/>
    </mask>
    <path id="path-11" fill-rule="evenodd" d="M124.5 464l127.67829457-36L321 510.4269663 175.875969 559 124.5 464z"/>
    <mask id="mask-12" x="0" y="0" maskContentUnits="userSpaceOnUse" maskUnits="userSpaceOnUse">
      <rect width="512" height="559" x="0" y="0" fill="black"/>
      <use fill="white" xlink:href="#path-11"/>
    </mask>
    <path id="path-13" fill-rule="evenodd" d="M61 228.58461538L144.673429 212 189 271.9076923 91.37704107 300 61 228.58461538z"/>
    <mask id="mask-14" x="0" y="0" maskContentUnits="userSpaceOnUse" maskUnits="userSpaceOnUse">
      <rect width="512" height="559" x="0" y="0" fill="black"/>
      <use fill="white" xlink:href="#path-13"/>
    </mask>
  </defs>
  <g>
    <g>
      <use fill="none" xlink:href="#rect-1"/>
      <g mask="url(#mask-2)">
        <path fill="rgb(0,160,164)" fill-rule="evenodd" d="M162.62890625 89.0625c0-22.640625-18.421875-41.0625-41.06640625-41.0625C98.921875 48 80.5 66.421875 80.5 89.0625c0 22.64453125 18.421875 41.0625 41.0625 41.0625 22.64453125.00390625 41.06640625-18.41796875 41.06640625-41.0625zM100.5 89.0625C100.5 77.44921875 109.94921875 68 121.5625 68c11.6171875 0 21.06640625 9.44921875 21.06640625 21.0625S133.1796875 110.125 121.5625 110.125c-11.61328125.00390625-21.0625-9.44921875-21.0625-21.0625z"/>
        <path fill="rgb(0,0,0)" fill-rule="evenodd" d="M196.1875 118.5234375c.0703125-.14453125.140625-.29296875.20703125-.44140625 4.54296875-10.33984375 6.84765625-21.34375 6.84765625-32.7109375C203.2421875 40.50390625 166.7421875 4 121.87109375 4 77.00390625 4 40.5 40.50390625 40.5 85.37109375c0 11.36328125 2.30468798 22.3671875 6.85156202 32.7109375.0625.1484375.13281298.296875.2070322.44140625 0 0 67.44140578 136.9765625 74.31249953 136.9765625S196.1875 118.5234375 196.1875 118.5234375zM60.5 85.37109375C60.5 51.53125 88.03125 24 121.87109375 24s61.37109375 27.53125 61.37109375 61.37109375c0 8.5-1.703125 16.72265625-5.0625 24.4453125l-56.30859375 112.78125-56.3046875-112.78125C62.203125 102.08984375 60.5 93.8671875 60.5 85.37109375z"/>
        <path fill="rgb(0,0,0)" fill-rule="evenodd" d="M334 432c-5.5078125 0-10 4.48828125-10 10 0 5.5078125 4.4921875 10 10 10s10-4.4921875 10-10c0-5.51171875-4.4921875-10-10-10z"/>
        <path fill="rgb(0,0,0)" fill-rule="evenodd" d="M283 232c-5.5078125 0-10 4.48828125-10 10 0 5.5078125 4.4921875 10 10 10s10-4.4921875 10-10c0-5.51171875-4.4921875-10-10-10z"/>
        <path fill="rgb(0,0,0)" fill-rule="evenodd" d="M389 369c-5.5078125 0-10 4.48828125-10 10 0 5.5078125 4.4921875 10 10 10s10-4.4921875 10-10c0-5.51171875-4.4921875-10-10-10z"/>
        <path fill="rgb(0,0,0)" fill-rule="evenodd" d="M213 240c5.5078125 0 10-4.4921875 10-10s-4.4921875-10-10-10-10 4.4921875-10 10 4.4921875 10 10 10z"/>
      </g>
    </g>
    <use fill-opacity="0" stroke="rgb(0,0,0)" stroke-linecap="butt" stroke-linejoin="miter" stroke-width="34" mask="url(#mask-10)" xlink:href="#path-9"/>
    <use fill-opacity="0" stroke="rgb(0,0,0)" stroke-linecap="butt" stroke-linejoin="miter" stroke-width="34" mask="url(#mask-12)" xlink:href="#path-11"/>
    <use fill-opacity="0" stroke="rgb(0,0,0)" stroke-linecap="butt" stroke-linejoin="miter" stroke-width="34" mask="url(#mask-14)" xlink:href="#path-13"/>
  </g>
</svg>
