<svg xmlns="http://www.w3.org/2000/svg" xmlns:xlink="http://www.w3.org/1999/xlink" width="512" height="512" viewBox="0 0 512 512">
  <defs>
    <rect id="rect-1" width="512" height="512" x="0" y="0"/>
    <mask id="mask-2" maskContentUnits="userSpaceOnUse" maskUnits="userSpaceOnUse">
      <rect width="512" height="512" x="0" y="0" fill="black"/>
      <use fill="white" xlink:href="#rect-1"/>
    </mask>
    <path id="path-4" fill-rule="evenodd" d="M0 0v512h512V0H0z"/>
    <mask id="mask-5" maskContentUnits="userSpaceOnUse" maskUnits="userSpaceOnUse">
      <rect width="512" height="512" x="0" y="0" fill="black"/>
      <use fill="white" xlink:href="#path-4"/>
    </mask>
  </defs>
  <g>
    <use fill="none" xlink:href="#rect-1"/>
    <g mask="url(#mask-2)">
      <g>
        <rect width="512" height="512" x="0" y="0" fill="none" rx="0" ry="0"/>
        <g>
          <use fill="none" xlink:href="#path-4"/>
          <g mask="url(#mask-5)">
            <path fill="rgb(0,160,164)" fill-rule="evenodd" d="M356.49757424 379.53252391c-5.93018023 0-8.5036445-3.39954915-12.39941875-8.54396602-4.80354841-6.34436943-10.78170484-14.23994336-22.10246795-14.23994336-11.32022406 0-17.29838048 7.89557393-22.1019289 14.23994336-3.89577424 5.14441687-6.46869945 8.54396602-12.3988797 8.54396602-5.9291021 0-8.50256637-3.39859982-12.39780157-8.54396602-4.80300935-6.34436943-10.78116577-14.23994336-22.10138983-14.23994336-11.32022407 0-17.29730237 7.89557393-22.10085078 14.23994336-3.8952352 5.14441687-6.4681604 8.54396602-12.39726252 8.54396602-5.92964118 0-8.50256639-3.39954915-12.39834064-8.54396602-4.80300935-6.34436943-10.78116577-14.23994336-22.10138983-14.23994336-11.32022407 0-17.29784142 7.89557393-22.10138983 14.23994336-3.8952352 5.14441687-6.46869947 8.54396602-12.39834064 8.54396602-5.92910212 0-8.50202734-3.39859982-12.39726253-8.54396602C132.29730237 364.64418846 126.319685 356.74861453 115 356.74861453c0 0-11.85806295 5.44816721-11.85806295 14.2484522 0 8.800285 11.85806295 14.23143453 11.85806295 14.23143453 5.92910211 0 8.50202733 3.39859981 12.39780157 8.54396601 4.80300936 6.34436944 10.78062673 14.23994337 22.10085078 14.23994337 11.32022407 0 17.29784143-7.89557393 22.10138983-14.23994337 3.8952352-5.14441687 6.46869947-8.54396601 12.39834064-8.54396601 5.92964118 0 8.5025664 3.39954914 12.39834064 8.54396601 4.80300936 6.34436944 10.78116577 14.23994337 22.10138984 14.23994337 11.32022405 0 17.29730236-7.89557393 22.10085077-14.23994337 3.8952352-5.14441687 6.4681604-8.54396601 12.39726252-8.54396601 5.92964118 0 8.50256639 3.39954914 12.39834064 8.54396601 4.80300935 6.34436944 10.78116577 14.23994337 22.10085078 14.23994337 11.32022406 0 17.29838047-7.89557393 22.1019289-14.23994337 3.89577424-5.14441687 6.46869945-8.54396601 12.39887969-8.54396601 5.93018023 0 8.5036445 3.39954914 12.39941875 8.54396601 4.8035484 6.34436944 10.78170483 14.23994337 22.10246795 14.23994337s17.29891954-7.89557393 22.10246795-14.23994337c3.89577425-5.1453662 6.46923852-8.54396601 12.39941875-8.54396601 0 0 9.97177766-5.44708189 9.97177766-14.24736689S391 356.74861453 391 356.74861453c-11.32076311 0-17.29891953 7.89557393-22.10246795 14.23994336-3.8963133 5.1453662-6.46977757 8.54396602-12.3999578 8.54396602z"/>
            <path fill="rgb(0,0,0)" fill-rule="evenodd" d="M248.9702353 144.01300527l-15.71631644-.04086338 24.24232356-24.08903417 24.11798472 24.2147739-15.71757044-.04086663-.3777545 145.28680201 15.71757044.04086664-24.2435801 24.09001618-24.11672818-24.21575592 15.71631645.04086338.37775449-145.28680201z"/>
          </g>
        </g>
      </g>
      <path fill="none" stroke="rgb(0,0,0)" stroke-linecap="round" stroke-linejoin="miter" stroke-width="26" d="M69 86.87405261s83.60340308-67 143.96149358-31.5c60.3580905 35.5 77.88798133 0 131.27187865 0 53.38389731 0 99.76662777 31.5 99.76662777 31.5"/>
    </g>
  </g>
</svg>
