<svg xmlns="http://www.w3.org/2000/svg" xmlns:xlink="http://www.w3.org/1999/xlink" width="512" height="512" viewBox="0 0 512 512">
  <defs>
    <rect id="rect-1" width="512" height="512" x="0" y="0"/>
    <mask id="mask-2" maskContentUnits="userSpaceOnUse" maskUnits="userSpaceOnUse">
      <rect width="512" height="512" x="0" y="0" fill="black"/>
      <use fill="white" xlink:href="#rect-1"/>
    </mask>
  </defs>
  <g>
    <use fill="none" xlink:href="#rect-1"/>
    <g mask="url(#mask-2)">
      <path fill="#00a0a4" fill-rule="evenodd" d="M411.34583411 379.53252391c-8.82962944 0-12.66134028-3.39954915-18.4618795-8.54396602-7.15215236-6.34436943-16.05321504-14.23994336-32.90905068-14.23994336-16.85503303 0-25.75609571 7.89557393-32.90824806 14.23994336-5.80053922 5.14441687-9.63144744 8.54396602-18.46107689 8.54396602-8.8280242 0-12.65973504-3.39859982-18.45947165-8.54396602-7.15134972-6.34436943-16.0524124-14.23994336-32.90744543-14.23994336s-25.75449047 7.89557393-32.90664282 14.23994336c-5.7997366 5.14441687-9.63064482 8.54396602-18.45866902 8.54396602-8.82882683 0-12.65973505-3.39954915-18.46027427-8.54396602-7.15134973-6.34436943-16.05241241-14.23994336-32.90744544-14.23994336-16.85503303 0-25.75529308 7.89557393-32.90744543 14.23994336-5.7997366 5.14441687-9.63144745 8.54396602-18.46027427 8.54396602-8.8280242 0-12.65893243-3.39859982-18.45866903-8.54396602-7.15215235-6.34436943-16.0524124-14.23994336-32.90664281-14.23994336v28.47988673c8.8280242 0 12.65893242 3.39859981 18.45947164 8.54396601 7.15134973 6.34436944 16.0516098 14.23994337 32.90664282 14.23994337 16.85503303 0 25.75529309-7.89557393 32.90744543-14.23994337 5.7997366-5.14441687 9.63144745-8.54396601 18.46027427-8.54396601 8.82882683 0 12.65973505 3.39954914 18.46027427 8.54396601 7.15134973 6.34436944 16.0524124 14.23994337 32.90744544 14.23994337 16.85503302 0 25.75449046-7.89557393 32.90664281-14.23994337 5.7997366-5.14441687 9.63064482-8.54396601 18.45866903-8.54396601 8.82882682 0 12.65973504 3.39954914 18.46027427 8.54396601 7.15134972 6.34436944 16.0524124 14.23994337 32.90664281 14.23994337 16.85503303 0 25.7560957-7.89557393 32.90824806-14.23994337 5.80053922-5.14441687 9.63144744-8.54396601 18.46107689-8.54396601 8.82962944 0 12.66134028 3.39954914 18.4618795 8.54396601 7.15215235 6.34436944 16.05321503 14.23994337 32.90905068 14.23994337s25.75689833-7.89557393 32.90905068-14.23994337c5.80053922-5.1453662 9.63225006-8.54396601 18.4618795-8.54396601v-28.47988673c-16.85583564 0-25.75689832 7.89557393-32.90905067 14.23994336-5.80134184 5.1453662-9.63305268 8.54396602-18.46268213 8.54396602z"/>
      <rect width="510.491" height="29.693" x="2" y="50" fill="rgb(0,0,0)" rx="0" ry="0"/>
      <path fill="rgb(0,0,0)" fill-rule="evenodd" d="M248.9702353 144.01300527l-15.71631644-.04086338 24.24232356-24.08903417 24.11798472 24.2147739-15.71757044-.04086663-.3777545 145.28680201 15.71757044.04086664-24.2435801 24.09001618-24.11672818-24.21575592 15.71631645.04086338.3777545-145.28680201z"/>
    </g>
  </g>
</svg>
